<svg width="183" height="212" viewBox="0 0 183 212" fill="none" xmlns="http://www.w3.org/2000/svg">
<g clip-path="url(#clip0_7_34)">
<path d="M82.6244 184.026C92.4347 183.988 102.245 183.95 112.055 183.912C144.926 184.384 161.077 188.304 171.963 192.793C173.128 193.396 175.966 194.316 176.404 197.349C176.364 199.899 174.306 200.881 172.436 201.984C167.302 205.011 161.46 205.501 155.822 206.789C141.369 210.092 126.669 210.632 111.941 211.481C86.8673 212.926 62.0124 211.292 37.2981 207.33C31.0172 206.323 24.5448 205.278 18.8245 202.001C17.0819 201.003 14.896 200.168 15.0107 197.766C15.1162 195.557 16.8714 194.318 18.7661 193.366C26.3543 189.553 34.6518 188.439 42.8673 187.09C47.339 186.356 61.2468 184.735 82.6244 184.026Z" fill="black" fill-opacity="0.28"/>
<path d="M8.41204 33.4229C10.6129 31.3796 12.8673 29.3905 15.0046 27.2826C21.007 21.3628 25.9897 21.8481 30.569 28.862C31.5759 30.2804 32.1393 30.9196 30.5534 32.8192C26.3109 38.19 22.3785 43.9214 15.5573 46.4139C14.2722 46.8834 14.1128 47.7785 13.6903 48.8951C11.6087 54.3962 11.1985 60.0775 11.433 65.8592C12.1202 82.8037 19.3204 96.0397 33.8411 105.041C34.4296 105.406 34.3261 105.442 35.8075 106.098C36.4585 106.386 35.8975 104.23 35.7273 103.543C34.243 97.5499 32.7214 91.6096 31.8747 85.4401C30.2336 73.4822 30.1989 61.9103 34.9772 50.4793C39.4358 39.8131 54.6695 30.7066 65.993 32.8024C71.4591 33.814 76.6932 35.484 81.7995 37.874C87.2343 40.4178 93.0561 40.6834 99.2153 39.9272C103.984 39.3416 106.939 35.6476 111.747 35.0161C117.443 34.2681 122.915 32.0744 128.826 33.4926C133.501 34.614 138.091 35.9034 142.179 38.5708C148.874 42.9394 151.798 49.812 154.182 56.9478C158.187 68.9318 156.113 80.9246 153.807 92.8714C153.568 94.1094 152.858 95.6941 153.923 96.3205C155.281 97.1193 156.038 95.3285 156.769 94.4679C170.669 78.0999 175.752 59.663 169.726 38.6377C167.577 31.1399 164.182 24.3023 159.257 18.2462C157.914 16.5954 156.109 15.1802 154.074 16.1494C152.049 17.1131 149.922 16.9102 147.907 17.3362C144.368 18.0848 140.45 18.4642 137.609 15.0781C137.142 13.884 136.674 12.69 136.206 11.4959C135.731 5.28481 138.266 2.69554 145.805 1.58317C147.878 1.27734 149.945 0.879963 151.979 0.3794C154.678 -0.284797 157.104 -0.288067 159.063 2.12403C159.922 3.18173 168.422 11.8559 170.446 14.8554C176.82 24.3015 180.941 34.4928 182.352 45.8443C185.401 70.3736 177.661 90.9496 159.87 107.837C157.084 110.482 154.09 112.996 150.577 114.745C144.382 117.83 142.881 124.016 141.44 129.812C139.428 137.902 138.933 146.271 138.234 154.601C137.342 165.215 136.533 175.879 133.938 186.279C133.362 187.764 132.835 189.27 132.203 190.731C130.076 195.644 126.802 199.634 121.157 199.709C116.881 199.766 114.225 196.365 112.024 192.911C110.237 190.107 110.045 186.613 108.049 183.912C106.332 175.289 104.577 166.674 102.912 158.042C101.856 152.569 101.12 147.026 98.4125 142.013C95.8765 137.317 91.8512 136.976 88.7995 141.298C88.236 142.097 87.8385 143.029 87.461 143.94C84.5477 150.968 83.7193 158.509 82.1626 165.868C80.8863 171.9 79.7928 177.972 78.6183 184.026C76.4078 188.78 74.9694 193.923 70.6194 197.493C67.1759 200.318 62.8005 200.313 59.424 197.495C55.5847 194.291 54.4699 189.658 52.3803 185.521C51.5758 180.023 50.9817 174.482 49.8953 169.04C49.13 165.207 49.2292 161.324 48.8771 157.497C47.9778 147.72 47.1348 137.972 44.9825 128.367C44.1046 124.45 42.4998 121.692 38.3626 120.066C19.2422 112.55 7.3766 98.165 1.96724 78.7181C-1.88582 64.8672 0.143965 51.1565 6.1121 38.0752C7.34805 36.757 8.11804 35.2078 8.41204 33.4229ZM108.596 98.9268C110.543 94.4975 111.369 89.8211 111.698 85.0267C111.835 83.0181 111.155 81.9779 108.957 81.9876C97.8651 82.0369 86.7727 82.0073 75.6805 82.0222C74.5368 82.0238 73.0404 82.0613 73.0454 83.5238C73.0689 90.2888 72.992 97.1263 77.8557 102.691C79.0711 108.542 83.2356 111.732 88.2554 114.057C91.5966 115.605 94.7744 114.774 97.888 113.098C103.642 110.001 106.688 104.908 108.596 98.9268ZM58.6257 85.8456C61.4421 85.7691 64.1714 84.9918 64.1176 81.9022C64.069 79.1108 61.7242 77.6486 58.834 77.7311C56.1432 77.8079 53.5177 78.5093 53.495 81.7382C53.4727 84.9054 55.8925 85.8215 58.6257 85.8456ZM62.6514 73.8114C65.2367 73.0193 67.1299 71.042 69.7927 71.4174C71.7973 71.7001 72.979 70.6272 72.9235 68.7736C72.872 67.0486 71.4524 66.4009 69.7873 66.2234C64.1174 65.6191 62.1307 67.5963 62.6514 73.8114ZM118.229 66.2277C116.615 66.331 114.258 65.9081 114.123 68.5423C113.997 70.9992 115.977 71.5136 118.055 71.4257C119.524 71.3635 120.678 72.061 121.804 72.868C122.374 73.2769 122.824 74.0524 123.72 73.4665C124.583 72.9027 124.654 72.0731 124.626 71.1501C124.527 67.89 122.4 66.1867 118.229 66.2277Z" fill="white"/>
<path d="M77.8557 102.691C72.9919 97.1263 73.0689 90.2888 73.0454 83.5238C73.0403 82.0613 74.5368 82.0238 75.6804 82.0223C86.7727 82.0074 97.865 82.037 108.957 81.9877C111.155 81.9779 111.835 83.0182 111.698 85.0267C111.369 89.8211 110.543 94.4976 108.596 98.9268C102.76 97.4926 97.0681 95.8252 90.8105 96.9995C85.9238 97.9166 81.9296 100.246 77.8557 102.691Z" fill="#FFC1AC"/>
<path d="M77.8557 102.691C81.9295 100.246 85.9238 97.9164 90.8106 96.9994C97.0682 95.8251 102.76 97.4926 108.596 98.9267C106.688 104.908 103.642 110.001 97.888 113.098C94.7745 114.774 91.5966 115.605 88.2554 114.057C83.2356 111.732 79.071 108.542 77.8557 102.691Z" fill="#F86C6B"/>
<path d="M58.6257 85.8456C55.8925 85.8214 53.4728 84.9053 53.4951 81.7382C53.5179 78.5092 56.1433 77.8078 58.834 77.731C61.7242 77.6485 64.069 79.1107 64.1176 81.9021C64.1714 84.9917 61.4421 85.7691 58.6257 85.8456Z" fill="#FFC1AC"/>
<path d="M62.6514 73.8114C62.1307 67.5962 64.1175 65.6191 69.7874 66.2234C71.4525 66.4008 72.872 67.0485 72.9237 68.7735C72.9791 70.6271 71.7973 71.7 69.7928 71.4174C67.13 71.0419 65.2368 73.0193 62.6514 73.8114Z" fill="#30405A"/>
<path d="M118.229 66.2409C122.4 66.1999 124.527 67.9032 124.626 71.1632C124.654 72.0862 124.582 72.9158 123.72 73.4796C122.824 74.0655 122.374 73.29 121.804 72.8811C120.678 72.0741 119.524 71.3766 118.055 71.4388C115.977 71.5267 113.997 71.0123 114.123 68.5554C114.258 65.9212 116.615 66.3442 118.229 66.2409Z" fill="#30405A"/>
<g style="mix-blend-mode:multiply" opacity="0.36">
<path d="M40.1642 96.6024C40.6649 98.7615 38.1754 110.152 36.0432 106.044C36.6817 105.066 33.4037 96.7976 31.8746 85.4401C30.9287 83.0514 30.5994 73.234 31.1501 66.1198C31.6855 59.2021 34.2292 51.6188 35.6704 48.9995C38.6118 43.654 43.0286 39.7101 48.288 36.5614C51.6194 34.567 58.6928 32.1229 62.3482 32.5021C58.5676 33.345 55.3809 35.456 54.5083 36.0805C51.2813 38.3899 46.9112 41.9678 45.3722 44.4562C44.6717 45.5889 39.8637 50.6229 37.5602 61.753C36.912 64.8845 35.1565 77.0944 40.1642 96.6024Z" fill="#65CDF2"/>
</g>
</g>
<defs>
<clipPath id="clip0_7_34">
<rect width="183" height="212" fill="white"/>
</clipPath>
</defs>
</svg>
